<svg width="23" height="23" viewBox="0 0 23 23" fill="none" xmlns="http://www.w3.org/2000/svg">
<path d="M9.58332 19.5498V14.9498V14.9482C9.58332 14.4126 9.58332 14.1446 9.47897 13.9398C9.38709 13.7595 9.24029 13.6128 9.05997 13.521C8.85497 13.4165 8.5868 13.4165 8.05008 13.4165H3.45008C2.91337 13.4165 2.64481 13.4165 2.43981 13.521C2.25949 13.6128 2.11299 13.7595 2.02111 13.9398C1.91666 14.1448 1.91666 14.4131 1.91666 14.9498V19.5498C1.91666 20.0865 1.91666 20.3549 2.02111 20.5599C2.11299 20.7403 2.25949 20.8868 2.43981 20.9787C2.64481 21.0832 2.91337 21.0832 3.45008 21.0832H8.05008C8.5868 21.0832 8.85497 21.0832 9.05997 20.9787C9.24029 20.8868 9.38709 20.7403 9.47897 20.5599C9.58332 20.3551 9.58332 20.0871 9.58332 19.5514V19.5498Z" stroke="white" stroke-width="2" stroke-linecap="round" stroke-linejoin="round"/>
<path d="M21.0833 19.5498V14.9498V14.9482C21.0833 14.4126 21.0833 14.1446 20.979 13.9398C20.8871 13.7595 20.7403 13.6128 20.56 13.521C20.355 13.4165 20.0868 13.4165 19.5501 13.4165H14.9501C14.4134 13.4165 14.1448 13.4165 13.9398 13.521C13.7595 13.6128 13.613 13.7595 13.5211 13.9398C13.4167 14.1448 13.4167 14.4131 13.4167 14.9498V19.5498C13.4167 20.0865 13.4167 20.3549 13.5211 20.5599C13.613 20.7403 13.7595 20.8868 13.9398 20.9787C14.1448 21.0832 14.4134 21.0832 14.9501 21.0832H19.5501C20.0868 21.0832 20.355 21.0832 20.56 20.9787C20.7403 20.8868 20.8871 20.7403 20.979 20.5599C21.0833 20.3551 21.0833 20.0871 21.0833 19.5514V19.5498Z" stroke="white" stroke-width="2" stroke-linecap="round" stroke-linejoin="round"/>
<path d="M9.58332 8.04981V3.44981V3.44824C9.58332 2.91257 9.58332 2.64457 9.47897 2.43977C9.38709 2.25945 9.24029 2.11283 9.05997 2.02096C8.85497 1.9165 8.5868 1.9165 8.05008 1.9165H3.45008C2.91337 1.9165 2.64481 1.9165 2.43981 2.02096C2.25949 2.11283 2.11299 2.25945 2.02111 2.43977C1.91666 2.64477 1.91666 2.9131 1.91666 3.44981V8.04981C1.91666 8.58653 1.91666 8.85494 2.02111 9.05993C2.11299 9.24026 2.25949 9.38683 2.43981 9.4787C2.64481 9.58316 2.91337 9.58317 3.45008 9.58317H8.05008C8.5868 9.58317 8.85497 9.58316 9.05997 9.4787C9.24029 9.38683 9.38709 9.24026 9.47897 9.05993C9.58332 8.85514 9.58332 8.58706 9.58332 8.05139V8.04981Z" stroke="white" stroke-width="2" stroke-linecap="round" stroke-linejoin="round"/>
<path d="M21.0833 8.04981V3.44981V3.44824C21.0833 2.91257 21.0833 2.64457 20.979 2.43977C20.8871 2.25945 20.7403 2.11283 20.56 2.02096C20.355 1.9165 20.0868 1.9165 19.5501 1.9165H14.9501C14.4134 1.9165 14.1448 1.9165 13.9398 2.02096C13.7595 2.11283 13.613 2.25945 13.5211 2.43977C13.4167 2.64477 13.4167 2.9131 13.4167 3.44981V8.04981C13.4167 8.58653 13.4167 8.85494 13.5211 9.05993C13.613 9.24026 13.7595 9.38683 13.9398 9.4787C14.1448 9.58316 14.4134 9.58317 14.9501 9.58317H19.5501C20.0868 9.58317 20.355 9.58316 20.56 9.4787C20.7403 9.38683 20.8871 9.24026 20.979 9.05993C21.0833 8.85514 21.0833 8.58706 21.0833 8.05139V8.04981Z" stroke="white" stroke-width="2" stroke-linecap="round" stroke-linejoin="round"/>
</svg>
