<svg width="28" height="28" viewBox="0 0 28 28" fill="none" xmlns="http://www.w3.org/2000/svg">
<path d="M14 17.4998L17.5 13.9998M17.5 13.9998L14 10.4998M17.5 13.9998L4.66666 13.9998M10.5 19.8332C10.5 20.9204 10.5 21.464 10.6776 21.8928C10.9144 22.4645 11.3684 22.9188 11.9401 23.1556C12.3689 23.3332 12.9128 23.3332 14 23.3332H19.6C20.9068 23.3332 21.5599 23.3331 22.0591 23.0788C22.4981 22.8551 22.8556 22.4983 23.0793 22.0592C23.3336 21.5601 23.3333 20.9066 23.3333 19.5998V8.39978C23.3333 7.09299 23.3336 6.43968 23.0793 5.94055C22.8556 5.50151 22.4981 5.14453 22.0591 4.92082C21.5599 4.6665 20.9068 4.6665 19.6 4.6665H14C12.9128 4.6665 12.3689 4.6665 11.9401 4.84412C11.3684 5.08094 10.9144 5.53516 10.6776 6.10689C10.5 6.53569 10.5 7.07929 10.5 8.16649" stroke="#000823" stroke-opacity="0.6" stroke-width="2" stroke-linecap="round" stroke-linejoin="round"/>
</svg>
