<svg width="22" height="22" viewBox="0 0 22 22" fill="none" xmlns="http://www.w3.org/2000/svg">
<path d="M19.3501 7.923L18.9839 7.71927C18.927 7.68763 18.8986 7.67176 18.8711 7.65531C18.598 7.49172 18.368 7.26529 18.2 6.99489C18.1831 6.96768 18.1665 6.93956 18.134 6.88317L18.1338 6.88295C18.1013 6.82663 18.0849 6.7983 18.0698 6.77005C17.9191 6.48873 17.8381 6.17547 17.8332 5.85638C17.8327 5.82759 17.8332 5.79813 17.8341 5.74528L17.8345 5.72624L17.8415 5.30924C17.853 4.6232 17.8587 4.28024 17.7627 3.97269C17.6777 3.7006 17.5358 3.44977 17.346 3.23709C17.1319 2.99711 16.8349 2.82601 16.2425 2.48461L16.2394 2.48283L15.7456 2.19827C15.1527 1.85664 14.8562 1.6859 14.5415 1.62076C14.2631 1.56313 13.9755 1.56543 13.6981 1.62772C13.3853 1.69794 13.0927 1.8731 12.5087 2.22282L12.5042 2.2255L12.1504 2.43736C12.0944 2.47086 12.0661 2.48757 12.0381 2.50316C11.7598 2.65788 11.4487 2.74397 11.1304 2.75418C11.0983 2.75521 11.0657 2.75521 11.0005 2.75521H10.9997C10.9348 2.75521 10.9026 2.75521 10.8706 2.75418C10.5517 2.74392 10.2395 2.65745 9.96081 2.50209C9.93374 2.487 9.90684 2.47085 9.85476 2.43958L9.84875 2.43597L9.49267 2.2222L9.48999 2.22059C8.90242 1.86784 8.60836 1.6913 8.29394 1.62076C8.01537 1.55826 7.72642 1.55616 7.44695 1.61453C7.13104 1.68052 6.83365 1.85309 6.23912 2.19815L5.75146 2.48119C5.16002 2.82445 4.86473 2.99601 4.65136 3.23616C4.4626 3.44862 4.32121 3.69888 4.23677 3.97025C4.14131 4.27698 4.14669 4.61891 4.1582 5.30264L4.16534 5.7273C4.16642 5.79161 4.16714 5.82379 4.16668 5.85542C4.16194 6.17516 4.08052 6.48909 3.92941 6.77091C3.91446 6.79878 3.89836 6.82665 3.8662 6.88232C3.83402 6.93803 3.81795 6.96582 3.80126 6.99271C3.63254 7.26456 3.40106 7.49205 3.12626 7.65592C3.09907 7.67212 3.07117 7.68771 3.01488 7.7189L2.65331 7.91927L2.65319 7.91934C2.05171 8.25266 1.75102 8.41929 1.53222 8.65669C1.33865 8.86672 1.19207 9.1158 1.10281 9.38712C1.00204 9.69341 1.00282 10.0368 1.00438 10.7228L1.00439 10.7255L1.00566 11.2876L1.00568 11.2937C1.00722 11.9728 1.00799 12.3133 1.10882 12.617C1.19829 12.8865 1.34413 13.1338 1.53661 13.3426C1.75395 13.5783 2.05224 13.7442 2.64794 14.0756L2.6499 14.0767L3.00824 14.276L3.01321 14.2788C3.07091 14.3109 3.10066 14.3275 3.12926 14.3447C3.40157 14.5087 3.63056 14.7352 3.79785 15.0055C3.81591 15.0347 3.83326 15.065 3.86793 15.1256L3.86796 15.1256C3.90222 15.1855 3.91956 15.2154 3.9354 15.2454C4.08207 15.5231 4.16134 15.8314 4.16669 16.1454C4.16727 16.1793 4.16673 16.2139 4.16556 16.2829L4.15868 16.6904L4.15866 16.6919C4.14709 17.377 4.14131 17.7197 4.23726 18.027C4.3222 18.2991 4.46451 18.5499 4.65429 18.7626C4.86882 19.003 5.16573 19.1744 5.76025 19.517L6.25395 19.8015C6.8468 20.1431 7.14366 20.3139 7.45841 20.379C7.73685 20.4366 8.02431 20.4343 8.30175 20.372C8.61469 20.3017 8.90731 20.1265 9.49187 19.7765L9.4956 19.7743L9.84942 19.5624C9.9054 19.5289 9.93357 19.5122 9.96161 19.4966C10.2399 19.3419 10.5509 19.2558 10.8691 19.2456C10.9012 19.2445 10.9338 19.2445 10.9991 19.2445C11.0645 19.2445 11.0976 19.2445 11.1297 19.2456C11.4486 19.2558 11.7603 19.3422 12.0391 19.4976C12.0671 19.5132 12.0953 19.5301 12.1514 19.5638L12.5074 19.7775L12.5081 19.7779C13.097 20.1315 13.3915 20.3083 13.7063 20.3789C13.9848 20.4414 14.2733 20.4436 14.5527 20.3852C14.8686 20.3193 15.1662 20.1467 15.7607 19.8016L16.2484 19.5186C16.8398 19.1753 17.1352 19.0037 17.3486 18.7636C17.5373 18.5511 17.6787 18.3009 17.7632 18.0295C17.8586 17.7228 17.8531 17.3809 17.8416 16.6972L17.8345 16.2725L17.8341 16.251C17.8332 16.2006 17.8328 16.1723 17.8332 16.1444C17.8379 15.8247 17.9192 15.5107 18.0703 15.2289C18.0852 15.2011 18.1013 15.1732 18.1334 15.1177L18.1335 15.1175C18.1657 15.0618 18.1821 15.0339 18.1988 15.007C18.3675 14.7351 18.5987 14.5078 18.8735 14.3439C18.8998 14.3282 18.9272 14.3131 18.9798 14.2839L18.9853 14.2808L19.3469 14.0805C19.9485 13.7471 20.249 13.5805 20.4678 13.3431C20.6614 13.133 20.8077 12.884 20.897 12.6127C20.9979 12.306 20.9975 11.9621 20.9959 11.2743L20.9946 10.7122C20.9931 10.029 20.9922 9.68735 20.8911 9.38272C20.8016 9.11322 20.6557 8.86592 20.4632 8.65716C20.2456 8.42119 19.9471 8.25512 19.3501 7.923Z" stroke="#000823" stroke-opacity="0.6" stroke-width="2" stroke-linecap="round" stroke-linejoin="round"/>
</svg>
